:FULLY-SPECIFIED
:FORCE-ALL-JOINTS-BE-3DOF
:DEGREES
611
root 5.62634 16.6815 -3.7906 0.0736805 52.3564 -7.80181
lfemur -17.882 24.7384 -22.2733
ltibia 40.2596 0 0
lfoot -32.9965 25.492 0
ltoes 19.334 0 0
rfemur -53.2862 -17.8994 27.7615
rtibia 63.4022 0 0
rfoot 8.5592 30.1081 0
rtoes -4.12872 0 0
lowerback 3.63943 -3.34879 -4.81721
upperback 0.0899903 -4.64271 1.10407
thorax -1.47062 -2.28358 4.03898
lowerneck -8.43603 -9.31683 -0.465417
upperneck 15.0084 -13.2629 4.31264
head 6.27498 -6.10855 0.367901
lclavicle 7.72297e-14 9.36316e-15 0
lhumerus -22.2878 -42.0386 92.9309
lradius 56.6884 0 0
lwrist 20.4759 0 0
lhand -10.6184 0.175899 0
lfingers 7.12502 0 0
lthumb 15.388 29.5832 0
rclavicle 7.72297e-14 9.36316e-15 0
rhumerus 22.476 3.51118 -72.2392
rradius 118.078 0 0
rwrist -58.8564 0 0
rhand -27.3192 -22.7864 0
rfingers 7.12502 0 0
rthumb -0.728351 -772.764 0
612
root 5.63549 16.7017 -3.80911 0.571662 50.5837 -7.36937
lfemur -17.6604 24.9848 -22.608
ltibia 39.7551 0 0
lfoot -33.5277 25.8828 0
ltoes 21.1719 0 0
rfemur -53.4507 -17.9976 27.2917
rtibia 65.0325 0 0
rfoot 9.06796 30.0096 0
rtoes -4.81569 0 0
lowerback 3.53485 -3.43145 -4.637
upperback -0.0234718 -4.74304 1.13396
thorax -1.531 -2.33139 3.97006
lowerneck -8.62555 -9.08752 -0.296748
upperneck 15.1172 -12.9281 3.95473
head 6.29845 -5.95992 0.250475
lclavicle 6.40947e-14 8.68162e-15 0
lhumerus -22.3081 -42.6839 93.4789
lradius 57.2557 0 0
lwrist 20.3476 0 0
lhand -10.6782 -0.0260419 0
lfingers 7.12502 0 0
lthumb 15.3305 29.3856 0
rclavicle 6.40947e-14 8.68162e-15 0
rhumerus 22.1099 3.12682 -72.0299
rradius 116.719 0 0
rwrist -58.8989 0 0
rhand -27.7578 -23.4676 0
rfingers 7.12502 0 0
rthumb -1.15195 -773.442 0
613
root 5.64698 16.7234 -3.82621 1.08438 48.7589 -6.93538
lfemur -17.4234 25.2272 -22.9525
ltibia 39.214 0 0
lfoot -34.0774 26.2362 0
ltoes 23.0101 0 0
rfemur -53.5431 -18.0979 26.7413
rtibia 66.5906 0 0
rfoot 9.56546 29.8378 0
rtoes -5.83946 0 0
lowerback 3.40253 -3.51161 -4.45281
upperback -0.141112 -4.83873 1.17325
thorax -1.58037 -2.37725 3.90656
lowerneck -8.81806 -8.85229 -0.129961
upperneck 15.2155 -12.5852 3.6021
head 6.32053 -5.80764 0.13558
lclavicle 5.54976e-14 8.58426e-15 0
lhumerus -22.3234 -43.3378 94.0593
lradius 57.8773 0 0
lwrist 20.2749 0 0
lhand -10.7943 -0.253518 0
lfingers 7.12502 0 0
lthumb 15.2186 29.1665 0
rclavicle 5.54976e-14 8.58426e-15 0
rhumerus 21.6764 2.75066 -71.7802
rradius 115.299 0 0
rwrist -58.8964 0 0
rhand -28.2069 -24.1895 0
rfingers 7.12502 0 0
rthumb -1.58569 -774.161 0
614
root 5.66018 16.7456 -3.84137 1.59579 46.9445 -6.51507
lfemur -17.1813 25.4473 -23.2935
ltibia 38.6574 0 0
lfoot -34.6231 26.5458 0
ltoes 24.784 0 0
rfemur -53.5642 -18.1995 26.1362
rtibia 68.0253 0 0
rfoot 10.0175 29.592 0
rtoes -7.14709 0 0
lowerback 3.24765 -3.58725 -4.27013
upperback -0.25951 -4.92748 1.22058
thorax -1.61795 -2.42005 3.85026
lowerneck -9.00699 -8.6194 0.03023
upperneck 15.3007 -12.2467 3.26677
head 6.34045 -5.65707 0.0269541
lclavicle 4.92346e-14 9.36317e-15 0
lhumerus -22.3327 -43.9807 94.6529
lradius 58.5278 0 0
lwrist 20.25 0 0
lhand -10.9503 -0.496434 0
lfingers 7.12502 0 0
lthumb 15.0683 28.9348 0
rclavicle 4.92346e-14 9.36317e-15 0
rhumerus 21.1871 2.39367 -71.4976
rradius 113.868 0 0
rwrist -58.8555 0 0
rhand -28.6445 -24.9091 0
rfingers 7.12502 0 0
rthumb -2.00833 -774.878 0
615
root 5.67446 16.7677 -3.85405 2.08985 45.2033 -6.12364
lfemur -16.9447 25.6268 -23.6175
ltibia 38.1067 0 0
lfoot -35.1424 26.8047 0
ltoes 26.4294 0 0
rfemur -53.5148 -18.3013 25.5023
rtibia 69.2852 0 0
rfoot 10.3899 29.2718 0
rtoes -8.68567 0 0
lowerback 3.07539 -3.65631 -4.09445
upperback -0.375244 -5.00702 1.27456
thorax -1.64298 -2.45865 3.80294
lowerneck -9.18577 -8.39713 0.179114
upperneck 15.3699 -11.9246 2.96076
head 6.35746 -5.51353 -0.0716684
lclavicle 4.31019e-14 1.13105e-14 0
lhumerus -22.3348 -44.5931 95.2407
lradius 59.1817 0 0
lwrist 20.2656 0 0
lhand -11.1299 -0.744695 0
lfingers 7.12502 0 0
lthumb 14.8953 28.6995 0
rclavicle 4.31019e-14 1.13105e-14 0
rhumerus 20.6537 2.06683 -71.1895
rradius 112.477 0 0
rwrist -58.7831 0 0
rhand -29.0485 -25.5835 0
rfingers 7.12502 0 0
rthumb -2.39857 -775.549 0
616
root 5.68921 16.7888 -3.86374 2.55051 43.5979 -5.77633
lfemur -16.724 25.7473 -23.9109
ltibia 37.5833 0 0
lfoot -35.6126 27.0064 0
ltoes 27.8819 0 0
rfemur -53.3957 -18.4024 24.8656
rtibia 70.3191 0 0
rfoot 10.6486 28.8765 0
rtoes -10.4023 0 0
lowerback 2.89092 -3.71678 -3.93124
upperback -0.484896 -5.07506 1.33384
thorax -1.65467 -2.49194 3.76637
lowerneck -9.3478 -8.19375 0.31198
upperneck 15.4204 -11.6313 2.69607
head 6.37082 -5.38239 -0.156551
lclavicle 3.4896e-14 1.47182e-14 0
lhumerus -22.3287 -45.1556 95.8034
lradius 59.8136 0 0
lwrist 20.3141 0 0
lhand -11.3168 -0.988205 0
lfingers 7.12502 0 0
lthumb 14.7152 28.4694 0
rclavicle 3.4896e-14 1.47182e-14 0
rhumerus 20.088 1.78111 -70.8634
rradius 111.176 0 0
rwrist -58.6858 0 0
rhand -29.397 -26.1695 0
rfingers 7.12502 0 0
rthumb -2.73515 -776.131 0
617
root 5.7038 16.8082 -3.86989 2.96174 42.1909 -5.48836
lfemur -16.5296 25.7905 -24.1604
ltibia 37.1083 0 0
lfoot -36.0114 27.1441 0
ltoes 29.0772 0 0
rfemur -53.2075 -18.5019 24.2519
rtibia 71.0755 0 0
rfoot 10.7592 28.4055 0
rtoes -12.244 0 0
lowerback 2.69943 -3.76662 -3.786
upperback -0.585043 -5.12934 1.39705
thorax -1.65224 -2.51879 3.74232
lowerneck -9.48653 -8.01751 0.424114
upperneck 15.4494 -11.379 2.48474
head 6.37978 -5.26899 -0.223958
lclavicle 2.2413e-14 1.98785e-14 0
lhumerus -22.3131 -45.6486 96.3219
lradius 60.3983 0 0
lwrist 20.388 0 0
lhand -11.4946 -1.21687 0
lfingers 7.12502 0 0
lthumb 14.544 28.2533 0
rclavicle 2.2413e-14 1.98785e-14 0
rhumerus 19.5016 1.54748 -70.5266
rradius 110.013 0 0
rwrist -58.5705 0 0
rhand -29.668 -26.6242 0
rfingers 7.12502 0 0
rthumb -2.99681 -776.583 0
618
root 5.71774 16.8254 -3.86614 3.32931 41.0027 -5.34648
lfemur -16.3564 25.4011 -24.2268
ltibia 36.7257 0 0
lfoot -36.1449 27.069 0
ltoes 29.644 0 0
rfemur -52.7561 -18.5647 23.6614
rtibia 71.1322 0 0
rfoot 10.3907 27.2515 0
rtoes -13.9679 0 0
lowerback 2.46681 -3.78602 -3.64259
upperback -0.694576 -5.14254 1.5025
thorax -1.63636 -2.5253 3.75862
lowerneck -9.59771 -7.89764 0.509746
upperneck 15.4288 -11.2136 2.3746
head 6.37912 -5.19277 -0.261286
lclavicle 1.26799e-14 2.44708e-14 0
lhumerus -22.3029 -46.1362 96.9009
lradius 60.9499 0 0
lwrist 20.4147 0 0
lhand -11.5641 -1.37931 0
lfingers 7.12502 0 0
lthumb 14.4771 28.0956 0
rclavicle 1.26799e-14 2.44708e-14 0
rhumerus 18.5482 1.43528 -70.0061
rradius 108.999 0 0
rwrist -58.4098 0 0
rhand -29.8371 -26.8261 0
rfingers 7.12502 0 0
rthumb -3.16011 -776.782 0
619
root 5.73183 16.8428 -3.85927 3.7189 39.7426 -5.23127
lfemur -16.1529 24.8565 -24.2219
ltibia 36.3379 0 0
lfoot -36.1726 26.8778 0
ltoes 30.0571 0 0
rfemur -52.2034 -18.5919 23.0472
rtibia 71.0202 0 0
rfoot 9.97803 25.7635 0
rtoes -15.4295 0 0
lowerback 2.2136 -3.79251 -3.48959
upperback -0.817015 -5.13783 1.62707
thorax -1.62289 -2.52262 3.78801
lowerneck -9.71111 -7.78597 0.59575
upperneck 15.3926 -11.0616 2.28061
head 6.37513 -5.12214 -0.294544
lclavicle 8.5708e-15 2.58014e-14 0
lhumerus -22.3199 -46.7019 97.5622
lradius 61.5502 0 0
lwrist 20.4337 0 0
lhand -11.6201 -1.51861 0
lfingers 7.12502 0 0
lthumb 14.423 27.9602 0
rclavicle 8.5708e-15 2.58014e-14 0
rhumerus 17.3822 1.36287 -69.387
rradius 107.927 0 0
rwrist -58.1711 0 0
rhand -30.0109 -27.0322 0
rfingers 7.12502 0 0
rthumb -3.32794 -776.986 0
620
root 5.74562 16.8596 -3.84967 4.1193 38.4496 -5.14191
lfemur -15.9247 24.1893 -24.1518
ltibia 35.9542 0 0
lfoot -36.1008 26.5755 0
ltoes 30.3163 0 0
rfemur -51.5768 -18.5841 22.4295
rtibia 70.7594 0 0
rfoot 9.54904 24.0149 0
rtoes -16.5884 0 0
lowerback 1.94864 -3.78665 -3.33352
upperback -0.947869 -5.11643 1.76441
thorax -1.61207 -2.5114 3.8281
lowerneck -9.82265 -7.68496 0.679512
upperneck 15.3427 -10.9264 2.2048
head 6.36796 -5.05863 -0.322844
lclavicle 8.937e-15 2.41138e-14 0
lhumerus -22.366 -47.328 98.2807
lradius 62.1815 0 0
lwrist 20.4489 0 0
lhand -11.6646 -1.63184 0
lfingers 7.12502 0 0
lthumb 14.3801 27.85 0
rclavicle 8.937e-15 2.41138e-14 0
rhumerus 16.0521 1.33295 -68.6973
rradius 106.828 0 0
rwrist -57.8542 0 0
rhand -30.1826 -27.2358 0
rfingers 7.12502 0 0
rthumb -3.49377 -777.187 0
621
root 5.75861 16.8753 -3.83773 4.51926 37.1626 -5.0776
lfemur -15.6778 23.4321 -24.0224
ltibia 35.584 0 0
lfoot -35.9356 26.1668 0
ltoes 30.4214 0 0
rfemur -50.9033 -18.542 21.8283
rtibia 70.3698 0 0
rfoot 9.13181 22.0791 0
rtoes -17.4042 0 0
lowerback 1.68075 -3.76898 -3.18085
upperback -1.08265 -5.07955 1.90819
thorax -1.60415 -2.49223 3.87651
lowerneck -9.92827 -7.59709 0.75842
upperneck 15.2808 -10.8111 2.14923
head 6.35773 -5.00376 -0.345297
lclavicle 1.26297e-14 1.96513e-14 0
lhumerus -22.443 -47.9967 99.0316
lradius 62.8262 0 0
lwrist 20.4642 0 0
lhand -11.6995 -1.71606 0
lfingers 7.12502 0 0
lthumb 14.3465 27.7682 0
rclavicle 1.26297e-14 1.96513e-14 0
rhumerus 14.6061 1.34822 -67.965
rradius 105.735 0 0
rwrist -57.4592 0 0
rhand -30.3455 -27.43 0
rfingers 7.12502 0 0
rthumb -3.6511 -777.378 0
622
root 5.77035 16.8892 -3.82384 4.90755 35.9208 -5.03751
lfemur -15.418 22.6178 -23.8395
ltibia 35.2364 0 0
lfoot -35.683 25.6565 0
ltoes 30.3721 0 0
rfemur -50.2102 -18.4661 21.264
rtibia 69.8712 0 0
rfoot 8.75433 20.0298 0
rtoes -17.8365 0 0
lowerback 1.41877 -3.74007 -3.03808
upperback -1.21686 -5.02841 2.05206
thorax -1.59936 -2.46575 3.93083
lowerneck -10.0239 -7.52482 0.82986
upperneck 15.2089 -10.7189 2.11594
head 6.34461 -4.95905 -0.361016
lclavicle 1.85e-14 1.26573e-14 0
lhumerus -22.5529 -48.6902 99.7897
lradius 63.4665 0 0
lwrist 20.4834 0 0
lhand -11.7267 -1.76832 0
lfingers 7.12502 0 0
lthumb 14.3204 27.7178 0
rclavicle 1.85e-14 1.26573e-14 0
rhumerus 13.0924 1.41139 -67.2179
rradius 104.68 0 0
rwrist -56.9861 0 0
rhand -30.4929 -27.6078 0
rfingers 7.12502 0 0
rthumb -3.7934 -777.554 0
623
root 5.78036 16.9006 -3.80839 5.27294 34.7629 -5.02084
lfemur -15.1511 21.779 -23.6091
ltibia 34.921 0 0
lfoot -35.3493 25.0496 0
ltoes 30.1682 0 0
rfemur -49.5246 -18.3572 20.7566
rtibia 69.2836 0 0
rfoot 8.44461 17.9402 0
rtoes -17.8449 0 0
lowerback 1.17152 -3.70046 -2.91171
upperback -1.34601 -4.96424 2.18967
thorax -1.59794 -2.43258 3.98869
lowerneck -10.1055 -7.47062 0.89122
upperneck 15.1288 -10.653 2.10697
head 6.32872 -4.92602 -0.369112
lclavicle 2.53991e-14 3.37528e-15 0
lhumerus -22.6976 -49.3909 100.53
lradius 64.0847 0 0
lwrist 20.5104 0 0
lhand -11.748 -1.7857 0
lfingers 7.12502 0 0
lthumb 14.2998 27.7019 0
rclavicle 2.53991e-14 3.37528e-15 0
rhumerus 11.5595 1.52517 -66.4841
rradius 103.693 0 0
rwrist -56.4349 0 0
rhand -30.6179 -27.7623 0
rfingers 7.12502 0 0
rthumb -3.91415 -777.706 0
624
root 5.78816 16.9089 -3.79178 5.60421 33.728 -5.02676
lfemur -14.883 20.9483 -23.3372
ltibia 34.647 0 0
lfoot -34.9405 24.3509 0
ltoes 29.8095 0 0
rfemur -48.8737 -18.2158 20.3265
rtibia 68.6269 0 0
rfoot 8.23067 15.8839 0
rtoes -17.389 0 0
lowerback 0.94786 -3.65072 -2.80823
upperback -1.46562 -4.88825 2.31469
thorax -1.60014 -2.39334 4.04768
lowerneck -10.1689 -7.43696 0.939886
upperneck 15.0422 -10.6167 2.12437
head 6.31023 -4.90619 -0.368696
lclavicle 3.21783e-14 -7.95139e-15 0
lhumerus -22.8789 -50.081 101.228
lradius 64.6632 0 0
lwrist 20.5491 0 0
lhand -11.7654 -1.76525 0
lfingers 7.12502 0 0
lthumb 14.2831 27.7235 0
rclavicle 3.21783e-14 -7.95139e-15 0
rhumerus 10.0555 1.69225 -65.7914
rradius 102.808 0 0
rwrist -55.8057 0 0
rhand -30.7139 -27.8868 0
rfingers 7.12502 0 0
rthumb -4.00683 -777.829 0
